<?xml version="1.0" encoding="utf-8"?>
<!-- Generator: Adobe Illustrator 14.0.0, SVG Export Plug-In . SVG Version: 6.00 Build 43363)  -->
<!DOCTYPE svg PUBLIC "-//W3C//DTD SVG 1.1//EN" "http://www.w3.org/Graphics/SVG/1.1/DTD/svg11.dtd">
<svg version="1.1" id="Layer_1" xmlns="http://www.w3.org/2000/svg" xmlns:xlink="http://www.w3.org/1999/xlink" x="0" y="0"
   width="71" height="28" viewBox="0 0 72 30" xml:space="preserve">

<path class="st0" d="M14 0 66 0c5 2 5 14 5 14C71 26 66 28 66 28L14 28c5-2 5-14 5-14C19 14 19 2 14 0Z" fill="#FFE0D2" stroke="#010101" stroke-width="1.5px" />
<path class="st0" d="M 14.966797 0 C 6.2556858 2.3684758e-15 1.9003906 4.3552951 1.9003906 13.066406 C 1.9003906 21.777517 6.2556858 26.132812 14.966797 26.132812 C 19.633464 24.266146 19.632812 13.066406 19.632812 13.066406 C 19.632812 13.066406 19.633464 1.8666667 14.966797 0 z" transform="matrix(1.0714286,0,0,1.0714286,-2.0357143,0)" fill="#E6D8F1" stroke="#010101" stroke-width="1.5px" />

</svg>
